#!OML:ASF E:\Steps\Project 1\Capture day 1\Session 2\Subject.ASF
:FULLY-SPECIFIED
:DEGREES
304
root 9.34587 13.339 30.2489 -111.53 -18.6968 188.507
lowerback -30.0602 3.99029 17.4051
upperback -6.104 -2.87923 4.11304
thorax 8.1407 -2.01924 -5.71451
lowerneck -0.172345 -4.40028 -0.097703
upperneck -21.8884 -3.49978 4.57175
head -6.5232 -1.19872 1.57891
rclavicle -4.37326e-015 -8.34896e-015
rhumerus -29.4803 -10.7043 -83.8027
rradius 32.8268
rwrist -3.47551
rhand -11.7034 -54.7277
rfingers 7.12502
rthumb 14.3428 -84.2122
lclavicle -4.37326e-015 -8.34896e-015
lhumerus -28.2567 -1.28506 82.3264
lradius 28.0132
lwrist -1.26147
lhand -31.4479 -9.92927
lfingers 7.12502
lthumb -4.71559 19.9982
rfemur -96.4442 12.2054 37.5611
rtibia 76.9209
rfoot -48.4635 -6.29811
rtoes -36.5475
lfemur -107.617 4.1258 3.66805
ltibia 89.2473
lfoot -32.115 -7.02821
ltoes -20.3447
305
root 9.34237 13.4056 30.0983 -113.09 -18.1877 188.287
lowerback -29.387 3.52643 16.912
upperback -5.97276 -3.0553 4.07687
thorax 8.09945 -2.04799 -5.64076
lowerneck -0.161766 -3.8774 -0.541702
upperneck -22.1808 -2.62024 5.06991
head -6.62239 -0.748142 1.76864
rclavicle -1.90833e-014 3.65764e-014
rhumerus -29.3245 -7.97677 -85.0861
rradius 36.7893
rwrist -7.22899
rhand -11.8143 -55.4028
rfingers 7.12502
rthumb 14.236 -84.8949
lclavicle -1.90833e-014 3.65764e-014
lhumerus -27.9053 -2.93931 83.1162
lradius 30.3953
lwrist 0.481532
lhand -31.433 -10.031
lfingers 7.12502
lthumb -4.70126 19.8969
rfemur -93.8673 11.6509 37.5302
rtibia 76.3411
rfoot -48.0154 -7.3647
rtoes -37.9091
lfemur -104.779 3.16601 3.35247
ltibia 88.447
lfoot -31.8058 -7.8567
ltoes -20.5113
306
root 9.34018 13.5029 29.9212 -115.709 -17.589 187.887
lowerback -27.2239 2.67224 16.1436
upperback -6.21475 -3.22611 4.22302
thorax 7.53964 -2.09634 -5.56921
lowerneck -0.510599 -3.39881 -0.901374
upperneck -21.6007 -1.95352 5.42933
head -6.38318 -0.434205 1.90005
rclavicle -4.96962e-014 5.92378e-014
rhumerus -29.5381 -5.76112 -86.0288
rradius 40.5158
rwrist -10.0483
rhand -11.6518 -54.8058
rfingers 7.12502
rthumb 14.3925 -84.2868
lclavicle -4.96962e-014 5.92378e-014
lhumerus -28.0316 -4.39263 83.7859
lradius 32.809
lwrist 1.3751
lhand -31.3744 -11.1184
lfingers 7.12502
lthumb -4.64471 18.8107
rfemur -89.9107 10.6232 37.4305
rtibia 75.3851
rfoot -47.4896 -7.98023
rtoes -37.9337
lfemur -100.557 1.61346 2.93562
ltibia 87.3696
lfoot -31.5205 -8.60569
ltoes -21.5554
307
root 9.33914 13.64 29.7115 -119.491 -17.1721 187.53
lowerback -24.4272 1.70401 15.6003
upperback -5.67451 -3.50087 4.09443
thorax 6.68772 -2.14213 -5.3868
lowerneck -0.749324 -3.03104 -1.26973
upperneck -20.8786 -1.47196 5.8645
head -6.11612 -0.227374 2.06972
rclavicle 9.14409e-015 1.19271e-015
rhumerus -29.8354 -3.57254 -86.9064
rradius 44.573
rwrist -12.1278
rhand -11.4455 -56.1237
rfingers 7.12502
rthumb 14.5913 -85.5904
lclavicle 9.14409e-015 1.19271e-015
lhumerus -28.1358 -6.02051 84.438
lradius 34.8889
lwrist 0.947451
lhand -31.6082 -12.2763
lfingers 7.12502
lthumb -4.87044 17.6477
rfemur -84.2551 9.30628 37.4635
rtibia 73.8646
rfoot -46.879 -8.06615
rtoes -36.4104
lfemur -94.8976 -0.391828 2.42268
ltibia 85.6528
lfoot -30.8318 -9.14891
ltoes -21.6455
308
root 9.34365 13.8139 29.4772 -125.145 -16.0483 187.064
lowerback -19.7771 0.375991 14.3304
upperback -4.62462 -3.67444 3.7567
thorax 5.42404 -2.08867 -4.90906
lowerneck -0.636938 -2.8592 -1.47301
upperneck -20.1952 -1.30248 6.2469
head -5.91724 -0.198896 2.215
rclavicle 5.1684e-015 -3.97569e-015
rhumerus -30.1218 -1.7975 -87.5964
rradius 48.1734
rwrist -13.3518
rhand -11.2175 -54.6403
rfingers 7.12502
rthumb 14.811 -84.091
lclavicle 5.1684e-015 -3.97569e-015
lhumerus -28.2357 -7.61957 84.9021
lradius 37.1411
lwrist 0.564261
lhand -31.0341 -13.6692
lfingers 7.12502
lthumb -4.31608 16.2668
rfemur -76.3213 7.8169 36.9109
rtibia 71.8353
rfoot -46.1394 -8.84192
rtoes -36.2732
lfemur -86.6885 -2.90011 0.8943
ltibia 83.2137
lfoot -29.9233 -9.65671
ltoes -20.4976
309
root 9.36347 13.9941 29.2588 -131.881 -12.9725 185.684
lowerback -12.6733 -1.08881 10.4747
upperback -3.80241 -3.41552 3.13603
thorax 2.69173 -1.92576 -3.08484
lowerneck -0.422025 -2.8487 -1.3614
upperneck -18.448 -1.77626 5.45831
head -5.39991 -0.509404 1.96015
rclavicle -1.31198e-014 7.59357e-014
rhumerus -31.0964 -0.0993201 -87.8393
rradius 51.4162
rwrist -13.8985
rhand -11.3188 -54.8655
rfingers 7.12502
rthumb 14.7134 -84.3234
lclavicle -1.31198e-014 7.59357e-014
lhumerus -29.1308 -8.66696 85.6726
lradius 39.1145
lwrist -0.253665
lhand -31.4802 -14.8908
lfingers 7.12502
lthumb -4.74686 15.036
rfemur -67.4143 6.71019 34.2597
rtibia 70.1484
rfoot -45.1573 -9.92845
rtoes -37.2017
lfemur -76.4731 -5.25159 -3.17978
ltibia 80.2172
lfoot -28.749 -10.0372
ltoes -19.5149
310
root 9.39587 14.1259 29.1076 -138.021 -6.80034 181.269
lowerback -6.72832 -1.95918 2.26513
upperback -2.23673 -2.9052 1.1631
thorax 1.41181 -1.50605 -0.30031
lowerneck 0.636815 -3.15361 -1.19143
upperneck -17.9898 -2.48913 4.7745
head -5.42714 -0.914328 1.76251
rclavicle -2.00773e-014 9.54166e-015
rhumerus -30.7634 1.12462 -88.4386
rradius 54.0496
rwrist -13.5929
rhand -11.1484 -55.6919
rfingers 7.12502
rthumb 14.8776 -85.1377
lclavicle -2.00773e-014 9.54166e-015
lhumerus -28.7593 -9.93971 85.9305
lradius 40.6879
lwrist -1.09693
lhand -32.2073 -15.9875
lfingers 7.12502
lthumb -5.44888 13.9225
rfemur -60.0781 6.39024 26.9541
rtibia 70.1378
rfoot -44.0813 -10.1588
rtoes -36.5801
lfemur -65.9428 -6.95463 -12.0049
ltibia 76.8332
lfoot -27.0181 -10.1721
ltoes -18.3297
311
root 9.39631 14.2631 28.9133 -141.379 -3.69696 178.097
lowerback -4.81923 -2.14758 -2.51967
upperback -1.47788 -2.80998 0.037412
thorax 1.3011 -1.435 1.28177
lowerneck 1.9604 -4.01394 -0.837112
upperneck -17.0539 -4.10155 3.62457
head -5.35003 -1.76988 1.43982
rclavicle 1.64991e-014 -1.98785e-015
rhumerus -30.6311 2.45598 -88.886
rradius 56.5237
rwrist -13.3162
rhand -11.6304 -56.5805
rfingers 7.12502
rthumb 14.4132 -86.0601
lclavicle 1.64991e-014 -1.98785e-015
lhumerus -28.5994 -11.0227 86.3449
lradius 41.9997
lwrist -1.69855
lhand -32.4611 -17.2301
lfingers 7.12502
lthumb -5.69396 12.6734
rfemur -55.3237 5.65116 22.563
rtibia 69.0045
rfoot -42.468 -9.19906
rtoes -35.8243
lfemur -59.4095 -7.67999 -17.4892
ltibia 73.9897
lfoot -24.8126 -9.85007
ltoes -16.1747
312
root 9.39133 14.4182 28.6766 -143.701 -2.10001 176.246
lowerback -3.89439 -2.18787 -5.26093
upperback -1.51082 -2.8099 -0.44318
thorax 0.852 -1.43629 2.35549
lowerneck 1.61067 -2.97139 -1.54363
upperneck -15.6584 -2.77958 4.15219
head -4.86765 -1.1606 1.63803
rclavicle -4.77083e-015 -1.35174e-014
rhumerus -31.3663 3.39146 -89.0375
rradius 58.7109
rwrist -11.8274
rhand -10.4441 -51.0711
rfingers 7.12502
rthumb 15.5559 -80.4654
lclavicle -4.77083e-015 -1.35174e-014
lhumerus -29.3464 -11.9018 87.0743
lradius 43.0533
lwrist -2.44362
lhand -32.9889 -18.0738
lfingers 7.12502
lthumb -6.20353 11.8153
rfemur -51.214 5.22962 20.0946
rtibia 67.1943
rfoot -40.428 -8.26703
rtoes -35.4178
lfemur -54.2784 -7.77056 -20.6948
ltibia 71.2327
lfoot -22.2639 -9.40509
ltoes -13.3699
